HIERARCHY
ROOT Hips
{
    OFFSET 0.0 0.0 0.0
    CHANNELS 6 Xposition Yposition Zposition Zrotation Xrotation Yrotation
    JOINT LeftHipJoint
    {
        OFFSET 0.1 0.0 0.0
        CHANNELS 3 Zrotation Xrotation Yrotation
        JOINT LeftUpLeg
        {
            OFFSET 119.08129449083395 0.0 0.0
            CHANNELS 3 Zrotation Xrotation Yrotation
            JOINT LeftLeg
            {
                OFFSET 0.0 0.0 -417.3648841072861
                CHANNELS 3 Zrotation Xrotation Yrotation
                JOINT LeftFoot
                {
                    OFFSET 0.0 0.0 -403.9624687207128
                    CHANNELS 3 Zrotation Xrotation Yrotation
                    End Site
                    {
                        OFFSET 0.0 -0.1 0.0
                    }
                }
            }
        }
    }
    JOINT LowerBack
    {
        OFFSET 0.0 0.0 0.1
        CHANNELS 3 Zrotation Xrotation Yrotation
        JOINT Spine
        {
            OFFSET 0.0 0.0 219.89453700806584
            CHANNELS 3 Zrotation Xrotation Yrotation
            JOINT Spine1
            {
                OFFSET 0.0 0.0 249.80262873087395
                CHANNELS 3 Zrotation Xrotation Yrotation
                JOINT LeftShoulder
                {
                    OFFSET 0.1 0.0 0.0
                    CHANNELS 3 Zrotation Xrotation Yrotation
                    JOINT LeftArm
                    {
                        OFFSET 142.06523702244615 0.0 0.0
                        CHANNELS 3 Zrotation Xrotation Yrotation
                        JOINT LeftForeArm
                        {
                            OFFSET 260.86918459022974 0.0 0.0
                            CHANNELS 3 Zrotation Xrotation Yrotation
                            JOINT LeftHand
                            {
                                OFFSET 233.80594253960297 0.0 0.0
                                CHANNELS 3 Zrotation Xrotation Yrotation
                                End Site
                                {
                                    OFFSET 0.1 0.0 0.0
                                }
                            }
                        }
                    }
                }
                JOINT Neck
                {
                    OFFSET 0.0 0.0 0.1
                    CHANNELS 3 Zrotation Xrotation Yrotation
                    JOINT Neck1
                    {
                        OFFSET 0.0 0.0 106.32471793374738
                        CHANNELS 3 Zrotation Xrotation Yrotation
                        End Site
                        {
                            OFFSET 0.0 0.0 113.886858657809
                        }
                    }
                }
                JOINT RightShoulder
                {
                    OFFSET -0.1 0.0 0.0
                    CHANNELS 3 Zrotation Xrotation Yrotation
                    JOINT RightArm
                    {
                        OFFSET -142.06523702244615 0.0 0.0
                        CHANNELS 3 Zrotation Xrotation Yrotation
                        JOINT RightForeArm
                        {
                            OFFSET -260.86918459022974 0.0 0.0
                            CHANNELS 3 Zrotation Xrotation Yrotation
                            JOINT RightHand
                            {
                                OFFSET -233.80594253960297 0.0 0.0
                                CHANNELS 3 Zrotation Xrotation Yrotation
                                End Site
                                {
                                    OFFSET -0.1 0.0 0.0
                                }
                            }
                        }
                    }
                }
            }
        }
    }
    JOINT RightHipJoint
    {
        OFFSET -0.1 0.0 0.0
        CHANNELS 3 Zrotation Xrotation Yrotation
        JOINT RightUpLeg
        {
            OFFSET -119.08129449083395 0.0 0.0
            CHANNELS 3 Zrotation Xrotation Yrotation
            JOINT RightLeg
            {
                OFFSET 0.0 0.0 -417.3648841072861
                CHANNELS 3 Zrotation Xrotation Yrotation
                JOINT RightFoot
                {
                    OFFSET 0.0 0.0 -403.9624687207128
                    CHANNELS 3 Zrotation Xrotation Yrotation
                    End Site
                    {
                        OFFSET 0.0 -0.1 0.0
                    }
                }
            }
        }
    }
}
MOTION
Frames: 8
Frame Time: 0.03333333333333333
0.0 0.0 827.379750153842 27.901748431919124 7.131754530790169 3.5820315655873287 2.758691436281349e-33 7.951386703658792e-16 -3.975693351829396e-16 0.29896805077150224 -20.419826463141348 -3.432893910108269 -1.3748412490643376 17.742958629782105 1.8558854648515217 1.551763932908259e-33 -8.945310041616142e-16 1.987846675914698e-16 2.758691436281349e-33 7.951386703658792e-16 -3.975693351829396e-16 0.020621765300408233 -1.4767484350072086 0.3218165275490302 3.9146774784806198 1.1988016648158576e-15 1.5793131103242816e-16 0.0 0.0 0.0 -24.249113520551422 20.609176469582785 70.14722486106359 -41.190011474909674 -3.685770367573029e-15 1.4329344121148044e-14 0.0 0.0 0.0 0.0 0.0 0.0 -13.041049789296732 0.5051564932416662 -5.876138645741276 0.0 0.0 0.0 -0.49696177872427294 -41.09444402397874 -45.779399428213544 129.53422205188724 5.588806182179194e-15 -4.398282149536691e-15 0.0 0.0 0.0 2.758691436281349e-33 7.951386703658792e-16 -3.975693351829396e-16 0.1840445838851205 -13.018386135966086 -3.049084338273586 -0.9582288394813498 13.892455681030597 0.2181846375039228 0.0 0.0 0.0
0.0 0.0 827.379750153842 27.869112928472596 7.146243922407695 3.639127486544148 0.0 0.0 -5.963540027744093e-16 0.26584278386151 -20.352044601156425 -3.572120763260739 -1.3698605682349358 17.502409235864555 1.9254175168019219 0.0 0.0 1.987846675914698e-16 0.0 0.0 -5.963540027744093e-16 0.019051590252871377 -1.5290794211253476 0.26828372302336057 3.897722201398285 -2.0542985270384663e-16 -1.9190951971431273e-16 0.0 0.0 -3.975693351829396e-16 -24.268601530832562 20.63716323108755 70.01724114553629 -40.79225943045487 6.375782949233699e-15 -8.02132538778926e-15 0.0 0.0 -7.951386703658792e-16 0.0 0.0 -3.975693351829396e-16 -12.872050270429439 0.44732697752038214 -5.833049928701904 0.0 0.0 -3.975693351829396e-16 -0.7037515009514878 -41.05421720363901 -45.78898382826634 129.77934071350683 -1.8055039489077163e-16 -7.10964429235403e-15 0.0 0.0 0.0 0.0 0.0 -5.963540027744093e-16 0.16404718569074983 -13.008364015907691 -3.078566135106159 -0.939893921473245 13.840507739624504 0.1760082427064132 3.1805546814635168e-15 -9.93923337957349e-17 2.758691436281349e-33
0.0 0.0 827.379750153842 27.854873903457975 7.08902455730148 3.615798552405932 0.0 0.0 -3.975693351829396e-16 0.2585541367665611 -20.288411339262822 -3.5372677936658268 -1.340739540245335 17.354667785175824 1.9725389618072346 0.0 0.0 9.93923337957349e-17 0.0 0.0 -3.975693351829396e-16 0.019211184305136356 -1.579914100563689 0.30527013795688895 3.858543014902686 -1.1920319155054108e-15 4.015344215310844e-17 0.0 -9.939233379573488e-16 0.0 -24.288979077428845 20.593307140298155 69.88396198990083 -40.54563482281542 -2.3418190020104653e-15 6.340001696065091e-15 0.0 0.0 -9.93923337957349e-16 0.0 -9.939233379573488e-16 0.0 -12.827041702018207 0.44426728152682826 -5.846700147699424 0.0 -9.939233379573488e-16 0.0 -0.7572746399914738 -40.97636000139249 -45.84574854881231 129.93161455629695 0.0 0.0 0.0 0.0 0.0 0.0 0.0 -3.975693351829396e-16 0.1598731892469797 -12.9900057183043 -3.071905669276307 -0.9367249851649927 13.881251742677193 0.22956213667478143 0.0 0.0 0.0
0.0 0.0 827.379750153842 27.698668183950172 6.820164380248018 3.577839826481504 0.0 0.0 1.987846675914698e-16 0.2733395916412007 -19.864809292855888 -3.4843360049771364 -1.3520351260753616 17.469825823382784 1.9697032952505917 0.0 0.0 -1.987846675914698e-16 0.0 0.0 1.987846675914698e-16 0.02124808751702666 -1.6150118240055205 0.29784347677281203 3.804486185563789 -1.9867512077469274e-16 6.598519122681707e-18 0.0 0.0 -1.987846675914698e-16 -24.002174645383814 20.603269060596464 69.80227237022115 -40.434182715796055 -1.2064109141963814e-14 9.750189775059418e-15 0.0 0.0 -1.3914926731402886e-15 0.0 0.0 -1.987846675914698e-16 -12.667440156589617 0.5523066235483827 -5.783418112115889 0.0 0.0 -1.987846675914698e-16 -0.5865688289120642 -40.50162399902343 -45.79636999255531 130.30925583397192 2.672752491276688e-15 -5.772357096324882e-15 1.987846675914698e-16 -1.987846675914698e-16 3.4483642953516864e-34 0.0 0.0 1.987846675914698e-16 0.16853024194155877 -12.663492227451371 -2.998492665610742 -0.9306612403972907 13.850684631687324 0.13786608670928927 0.0 0.0 0.0
0.0 0.0 827.379750153842 27.61805063425548 6.721120655366582 3.564268238187722 0.0 0.0 1.987846675914698e-16 0.27961508792428363 -19.715090241093645 -3.4298171886244946 -1.3543051413621137 17.614151053763592 1.9339970718150303 0.0 0.0 0.0 0.0 0.0 1.987846675914698e-16 0.021772097899788432 -1.6045266006789467 0.2930730788787816 3.805419146461163 -6.092254744559145e-16 -3.775497241117133e-16 0.0 0.0 -1.987846675914698e-16 -23.80470613051605 20.5699914589478 69.72758265940638 -40.185079875286654 3.696546391563736e-15 -1.4734488594471534e-14 4.965644585306429e-32 -1.5902773407317588e-15 3.578124016646457e-15 0.0 0.0 -1.987846675914698e-16 -12.651389207632139 0.5678539056686543 -5.770372794267505 0.0 0.0 -1.987846675914698e-16 -0.5397660259212386 -40.36046477168416 -45.82793878865089 130.42868421372376 -8.662709292228132e-15 -4.000102555480275e-15 0.0 0.0 0.0 0.0 0.0 1.987846675914698e-16 0.172386573358134 -12.563677627464696 -2.964346806180007 -0.9375899874958251 13.98639337181405 0.12408354783820198 -3.1805546814635168e-15 0.0 0.0
0.0 0.0 827.379750153842 27.506118059684805 6.742863696245642 3.6051951147182595 0.0 0.0 0.0 0.2603595035946911 -19.76177507396002 -3.482695886480858 -1.367150969430301 17.793469295952505 1.8984150070130914 0.0 0.0 1.987846675914698e-16 0.0 0.0 0.0 0.020316497175604603 -1.6122074052274584 0.272311477680501 3.797310945123892 1.2513279115397269e-15 1.748563328543581e-15 -1.034509288605506e-33 -5.963540027744094e-16 -1.987846675914698e-16 -23.49650696201768 20.423638287980634 69.58822528855836 -40.12594428328823 9.056778735564013e-15 -1.5527128755534212e-14 0.0 0.0 1.3914926731402886e-15 -1.034509288605506e-33 -5.963540027744094e-16 -1.987846675914698e-16 -12.442743184830023 0.6005121770787092 -5.810043021046419 -1.034509288605506e-33 -5.963540027744094e-16 -1.987846675914698e-16 -0.6184084648015588 -40.26856806159481 -45.93311505316811 130.5674933110369 2.889182803755079e-15 1.3298687184325508e-15 1.987846675914698e-16 -1.987846675914698e-16 3.4483642953516864e-34 0.0 0.0 0.0 0.1603924130164605 -12.58639863188318 -2.9616626943567033 -0.9312064489577544 14.109627908204397 0.012104097121073895 0.0 0.0 -3.975693351829396e-16
0.0 0.0 827.379750153842 27.39647614715286 6.846459096522214 3.655134681422264 0.0 0.0 1.987846675914698e-16 0.22787057024589208 -19.75558673460869 -3.5619429239010665 -1.3513400505216613 17.663936287686777 1.8722082985470596 0.0 0.0 0.0 0.0 0.0 1.987846675914698e-16 0.017692923780097125 -1.6035733828391956 0.22204997611186736 3.866043723595283 1.410816565984081e-15 5.490779299635449e-16 -6.3611093629270335e-15 -1.1034765745125397e-32 1.987846675914698e-16 -23.72616695243816 20.51642598570919 69.67736580136051 -40.13934288264377 7.005099963189982e-15 -5.271235028036428e-15 0.0 0.0 -1.7890620083232284e-15 -6.3611093629270335e-15 -1.1034765745125397e-32 1.987846675914698e-16 -12.361642865831245 0.5506189551944173 -5.7748757726937985 -6.3611093629270335e-15 -1.1034765745125397e-32 1.987846675914698e-16 -0.5366632478024572 -40.331297473927805 -45.906761198041316 130.62993448685663 -6.013132670093861e-15 -9.764696644288713e-15 0.0 0.0 0.0 0.0 0.0 1.987846675914698e-16 0.1420294932192014 -12.720962657446917 -2.971273460202723 -0.9168609085219032 14.204376940046183 -0.04516617358801148 -5.517382872562698e-33 -1.5902773407317584e-15 -3.975693351829396e-16
0.0 0.0 827.379750153842 27.414938826934364 6.818239427341325 3.717798769174774 0.0 0.0 1.987846675914698e-16 0.2200600432339381 -19.739852150204253 -3.6038354559836265 -1.3702388499793394 17.819273058850722 1.8409742521751589 0.0 0.0 0.0 0.0 0.0 1.987846675914698e-16 0.017338992021914218 -1.626244031974912 0.17944763705369926 3.8859647425414527 -1.9732242231459293e-15 4.647385807236812e-16 0.0 0.0 0.0 -23.693796885210222 20.61609121461049 69.65593376297322 -39.925512602676555 -6.803220347697187e-16 -2.7850230691060043e-15 0.0 0.0 2.9817700138720468e-15 0.0 0.0 0.0 -12.270247163299556 0.6491217375199694 -5.724809008273627 0.0 0.0 0.0 -0.5088136536294544 -40.215779736899755 -45.878261119620035 130.62845551676807 -1.1559559516749576e-14 -5.313325991052701e-15 0.0 0.0 0.0 0.0 0.0 1.987846675914698e-16 0.1363982671007221 -12.648892404372306 -3.075000164572661 -0.9376486500874986 14.20455164892701 -0.01455067696550134 0.0 0.0 0.0
